<svg width="640" height="38" viewBox="0 0 640 38" fill="none" xmlns="http://www.w3.org/2000/svg">
<g filter="url(#filter0_d_2_43)">
<path d="M4.56624 15L19 29.4338L33.4338 15L19 0.566243L4.56624 15ZM635.92 15L621.486 0.566243L607.052 15L621.486 29.4338L635.92 15ZM19 17.5H29.0414V12.5H19V17.5ZM49.1243 17.5H69.2072V12.5H49.1243V17.5ZM89.2901 17.5H109.373V12.5H89.2901V17.5ZM129.456 17.5H149.539V12.5H129.456V17.5ZM169.622 17.5H189.704V12.5H169.622V17.5ZM209.787 17.5H229.87V12.5H209.787V17.5ZM249.953 17.5H270.036V12.5H249.953V17.5ZM290.119 17.5H310.202V12.5H290.119V17.5ZM330.285 17.5H350.367V12.5H330.285V17.5ZM370.45 17.5H390.533V12.5H370.45V17.5ZM410.616 17.5H430.699V12.5H410.616V17.5ZM450.782 17.5H470.865V12.5H450.782V17.5ZM490.948 17.5H511.031V12.5H490.948V17.5ZM531.113 17.5H551.196V12.5H531.113V17.5ZM571.279 17.5H591.362V12.5H571.279V17.5ZM611.445 17.5H621.486V12.5H611.445V17.5Z" fill="white"/>
</g>
<defs>
<filter id="filter0_d_2_43" x="0.566406" y="0.566162" width="639.354" height="36.8677" filterUnits="userSpaceOnUse" color-interpolation-filters="sRGB">
<feFlood flood-opacity="0" result="BackgroundImageFix"/>
<feColorMatrix in="SourceAlpha" type="matrix" values="0 0 0 0 0 0 0 0 0 0 0 0 0 0 0 0 0 0 127 0" result="hardAlpha"/>
<feOffset dy="4"/>
<feGaussianBlur stdDeviation="2"/>
<feComposite in2="hardAlpha" operator="out"/>
<feColorMatrix type="matrix" values="0 0 0 0 0 0 0 0 0 0 0 0 0 0 0 0 0 0 0.25 0"/>
<feBlend mode="normal" in2="BackgroundImageFix" result="effect1_dropShadow_2_43"/>
<feBlend mode="normal" in="SourceGraphic" in2="effect1_dropShadow_2_43" result="shape"/>
</filter>
</defs>
</svg>
