<svg width="37" height="50" viewBox="0 0 37 50" fill="none" xmlns="http://www.w3.org/2000/svg">
<path d="M1.37424 0C0.578627 0 0 0.491563 0 1.16746V48.0503C0 48.7262 0.578627 49.2177 1.37424 49.2177H34.8623C35.6579 49.2177 36.2365 48.7262 36.2365 48.0503V1.16746C36.2365 0.491563 35.6579 0 34.8623 0L1.37424 0ZM7.23283 6.14453H28.9313V36.8672H7.23283V6.14453ZM18.0821 39.9395C20.1073 39.9395 21.6985 41.2913 21.6985 43.0117C21.6985 44.7322 20.1073 46.084 18.0821 46.084C16.0569 46.084 14.4657 44.7322 14.4657 43.0117C14.4657 41.2913 16.0569 39.9395 18.0821 39.9395Z" fill="#6F0606"/>
</svg>
